<?xml version="1.0" standalone="no"?>
<!DOCTYPE svg PUBLIC "-//W3C//DTD SVG 20010904//EN"
 "http://www.w3.org/TR/2001/REC-SVG-20010904/DTD/svg10.dtd">
<svg version="1.0" xmlns="http://www.w3.org/2000/svg"
 width="1280.000000pt" height="1145.000000pt" viewBox="0 0 1280.000000 1145.000000"
 preserveAspectRatio="xMidYMid meet">
<metadata>
Created by potrace 1.15, written by Peter Selinger 2001-2017
</metadata>
<g transform="translate(0.000000,1145.000000) scale(0.100000,-0.100000)"
fill="#ffffff" stroke="none">
<path d="M3012 10318 c-66 -7 -115 -20 -169 -44 -17 -8 -39 -14 -49 -14 -9 0
-47 -14 -83 -31 -36 -17 -130 -57 -208 -89 -170 -69 -207 -89 -211 -117 -2
-12 13 -56 32 -99 20 -42 36 -78 36 -80 0 -2 -45 -4 -100 -4 l-100 0 -1 -132
c0 -73 -1 -191 -2 -262 l-2 -128 -80 -27 c-149 -51 -180 -63 -197 -79 -17 -14
-18 8 -18 462 l0 478 -30 28 c-37 35 -65 40 -206 40 l-114 0 -1 -587 c-1 -324
-2 -606 -3 -628 -1 -36 -4 -40 -31 -46 -16 -4 -52 -7 -78 -8 l-49 -1 6 -252
c4 -139 11 -550 17 -913 6 -377 15 -667 20 -677 7 -14 22 -18 63 -18 l53 0 6
-1252 7 -1251 -44 -53 -44 -53 -7 -228 c-4 -125 -12 -298 -18 -383 -5 -85 -9
-279 -8 -430 3 -452 21 -1463 26 -1468 2 -3 28 -9 56 -13 28 -5 53 -10 55 -12
2 -1 6 -284 9 -627 4 -344 8 -636 11 -649 l5 -24 132 7 c72 4 133 9 135 11 2
2 10 290 18 641 8 351 16 639 17 640 1 1 619 5 1372 8 754 3 1651 8 1995 11
344 3 1383 7 2310 10 927 3 1872 8 2101 11 229 3 455 3 502 -1 l87 -7 0 -603
0 -603 47 -28 47 -27 128 9 c70 6 129 12 131 14 2 3 12 280 22 615 12 430 21
614 29 622 6 7 40 16 75 19 34 4 65 12 67 18 2 6 10 207 17 446 l13 435 -24
37 -24 37 17 483 c9 265 18 585 18 711 l2 229 -27 23 c-16 13 -35 28 -45 33
-18 10 -18 -7 17 847 6 127 19 558 30 959 12 401 25 737 30 746 6 11 27 20 57
24 26 4 62 9 80 12 l31 6 7 91 c6 90 22 848 32 1481 4 259 2 320 -9 327 -7 5
-41 9 -75 9 l-63 0 0 88 c1 48 7 276 14 506 10 282 11 427 4 441 -9 19 -21 23
-85 29 -130 11 -188 7 -237 -14 -38 -16 -46 -24 -46 -46 0 -34 -47 -823 -55
-921 l-6 -73 48 -2 c26 -1 -17 -4 -95 -7 -136 -6 -145 -7 -163 -30 -18 -23
-20 -23 -53 -7 -19 9 -43 16 -54 16 -12 0 -53 13 -93 29 -72 29 -72 30 -116
108 -48 85 -72 109 -118 118 -39 8 -144 32 -218 52 -60 15 -310 61 -382 69
-22 3 -51 7 -64 10 l-24 5 6 296 c5 244 4 300 -8 322 -14 27 -17 28 -149 39
-126 11 -139 10 -181 -8 l-45 -19 0 -281 0 -280 -198 0 c-203 0 -332 11 -412
35 -59 17 -99 24 -217 35 -54 5 -165 15 -248 24 -281 28 -440 37 -558 31 -228
-11 -403 -25 -432 -34 -85 -27 -218 -36 -517 -33 -291 3 -311 2 -385 -19 -70
-19 -101 -22 -288 -21 -115 0 -327 -6 -470 -14 -322 -17 -324 -17 -331 0 -3 8
4 28 16 44 23 31 31 105 17 155 -10 36 28 77 73 77 62 0 35 43 -88 141 -35 28
-119 106 -188 174 -73 73 -149 139 -184 159 -34 20 -63 36 -66 36 -2 0 -46 20
-97 43 -106 51 -193 66 -512 93 -189 15 -513 16 -643 2z m-567 -550 c78 -87
131 -168 149 -232 21 -71 20 -91 -5 -143 l-21 -43 -105 0 -106 0 7 53 c3 28 6
136 6 240 0 106 4 187 9 187 5 0 35 -28 66 -62z m-275 -3542 l0 -864 -152
-180 c-84 -99 -157 -181 -162 -181 -6 -1 -7 319 -3 802 4 441 7 911 7 1045 l0
242 155 0 155 0 0 -864z m2910 839 c234 -3 796 -7 1250 -10 454 -3 1164 -8
1579 -12 l754 -6 -7 -1090 c-4 -600 -8 -1093 -10 -1095 -5 -4 -121 18 -276 53
-58 13 -163 31 -235 40 -71 8 -182 24 -246 35 -64 10 -185 26 -270 35 -296 29
-364 37 -419 46 -30 5 -86 9 -125 10 -83 1 -424 27 -433 33 -4 2 -126 7 -272
10 -355 9 -474 15 -610 27 -223 19 -487 39 -680 49 -107 6 -283 22 -390 36
-107 13 -240 24 -296 24 -95 0 -102 -1 -125 -26 -21 -23 -24 -35 -25 -110 -1
-47 -5 -88 -9 -92 -8 -8 -156 -31 -207 -32 -28 0 -38 4 -38 15 0 9 -11 33 -25
55 -31 49 -33 86 -5 93 30 8 24 40 -15 81 -19 21 -35 42 -35 47 0 10 19 28 70
68 l25 19 -34 19 c-19 10 -53 34 -75 54 -72 63 -162 116 -253 148 -107 39
-278 54 -461 41 -222 -16 -310 -34 -462 -95 -47 -18 -138 -45 -202 -58 l-118
-25 -4 32 c-3 17 -7 384 -9 815 l-4 784 1136 -7 c625 -3 1327 -8 1561 -11z
m4757 -35 l521 0 7 -28 c3 -16 -6 -433 -20 -928 -35 -1229 -42 -1434 -47
-1439 -2 -2 -275 118 -606 268 l-602 272 0 934 0 934 113 -6 c61 -4 347 -7
634 -7z"/>
</g>
</svg>
