<?xml version="1.0" standalone="no"?>
<!DOCTYPE svg PUBLIC "-//W3C//DTD SVG 20010904//EN"
 "http://www.w3.org/TR/2001/REC-SVG-20010904/DTD/svg10.dtd">
<svg version="1.0" xmlns="http://www.w3.org/2000/svg"
 width="1268.000000pt" height="1280.000000pt" viewBox="0 0 1268.000000 1280.000000"
 preserveAspectRatio="xMidYMid meet">
<metadata>
Created by potrace 1.15, written by Peter Selinger 2001-2017
</metadata>
<g transform="translate(0.000000,1280.000000) scale(0.100000,-0.100000)"
fill="#ffffff" stroke="none">
<path d="M9505 12742 c-66 -32 -115 -61 -110 -64 6 -3 307 -163 670 -356 363
-192 1069 -566 1569 -831 500 -265 912 -479 917 -474 4 4 30 73 57 153 28 80
55 158 61 174 7 16 8 32 4 36 -4 4 -456 216 -1003 470 -547 255 -1230 573
-1518 706 -287 134 -523 244 -525 243 -1 0 -56 -26 -122 -57z"/>
<path d="M8415 8602 c-1265 -1797 -2671 -3793 -3124 -4437 -453 -643 -824
-1174 -825 -1180 -1 -5 24 -52 54 -103 42 -71 57 -89 65 -79 472 632 6521
8771 6523 8777 2 6 -323 246 -383 282 -6 4 -1012 -1415 -2310 -3260z"/>
<path d="M9627 9018 c-546 -728 -1557 -2074 -2247 -2993 -690 -918 -1370
-1824 -1512 -2013 l-259 -343 108 5 c59 3 207 8 328 11 121 3 252 10 290 15
39 5 169 17 290 26 405 30 519 42 710 73 105 17 246 40 315 52 69 11 148 26
175 34 28 8 100 24 160 35 61 11 148 33 195 50 47 16 93 30 102 30 10 0 109
36 220 81 213 85 418 189 528 269 36 26 76 53 90 60 77 40 338 298 410 405 18
28 45 64 60 80 28 31 64 97 143 265 72 151 87 186 87 203 0 9 13 45 29 79 37
79 55 129 126 353 32 99 68 209 81 245 13 36 28 85 33 110 5 25 30 101 56 170
26 69 57 168 69 221 13 52 30 118 39 145 9 27 23 87 32 134 8 47 22 105 30
130 19 59 65 318 65 365 0 21 9 90 19 154 74 444 122 874 151 1351 11 173 25
373 40 590 16 228 41 930 33 930 -1 0 -449 -595 -996 -1322z"/>
<path d="M10987 10023 c-3 -32 -10 -94 -16 -138 -6 -44 -15 -129 -21 -190 -5
-60 -14 -138 -20 -173 -9 -60 -19 -127 -40 -269 -5 -38 -14 -113 -20 -168 -6
-55 -22 -158 -36 -230 -13 -71 -24 -147 -24 -168 0 -21 -15 -120 -34 -220 -19
-100 -50 -279 -70 -397 -21 -118 -46 -246 -56 -285 -10 -38 -22 -92 -26 -120
-4 -27 -13 -68 -21 -90 -8 -22 -25 -105 -39 -185 -26 -159 -88 -421 -134 -570
-16 -52 -34 -122 -40 -156 -5 -33 -28 -112 -49 -175 -21 -63 -41 -132 -45
-154 -4 -22 -21 -77 -37 -123 -16 -46 -29 -93 -29 -104 0 -39 -227 -630 -291
-758 -21 -41 -54 -109 -74 -150 -82 -172 -205 -387 -259 -453 -47 -58 -217
-310 -212 -315 8 -7 52 22 116 78 36 31 94 76 130 100 35 24 83 63 105 86 23
23 56 51 73 62 33 19 145 121 264 240 74 73 136 179 184 313 14 41 35 91 45
111 11 21 26 61 34 90 17 64 39 128 77 228 15 41 28 85 28 97 0 12 8 44 19 70
10 26 24 79 30 117 7 38 17 78 22 88 6 10 17 58 25 106 8 48 21 107 29 132 8
25 26 110 40 190 14 80 32 165 39 190 8 25 29 133 45 240 17 107 34 209 37
225 3 17 9 75 14 130 5 55 18 156 30 225 11 69 25 166 31 215 6 50 17 135 26
190 17 114 30 242 43 430 5 72 14 173 20 225 6 52 15 156 21 230 6 74 12 151
15 170 2 19 11 159 19 310 9 151 20 302 25 335 11 69 25 425 17 425 -3 0 -7
-26 -10 -57z"/>
<path d="M9344 4389 c-10 -12 -35 -29 -54 -39 -19 -10 -44 -28 -55 -40 -11
-12 -46 -37 -79 -56 -32 -20 -84 -54 -115 -78 -31 -23 -99 -67 -151 -98 -222
-130 -261 -152 -420 -235 -54 -29 -116 -63 -137 -76 -21 -13 -58 -31 -83 -41
-25 -10 -66 -30 -91 -46 -26 -15 -91 -45 -145 -65 -94 -35 -353 -134 -458
-176 -27 -10 -56 -19 -65 -19 -9 0 -65 -15 -126 -34 -150 -48 -207 -63 -295
-80 -41 -8 -88 -19 -103 -25 -16 -6 -47 -11 -70 -11 -23 0 -89 -9 -147 -20
-58 -12 -148 -25 -200 -30 -52 -5 -153 -14 -225 -20 -193 -18 -512 -7 -700 25
-142 23 -210 31 -175 18 8 -3 35 -14 60 -25 82 -36 73 -33 260 -103 20 -7 58
-16 85 -20 28 -4 58 -12 67 -17 10 -5 37 -12 60 -17 24 -5 77 -16 118 -25 81
-17 239 -42 360 -56 157 -19 474 -10 685 18 106 15 505 112 549 134 21 11 70
30 110 43 71 24 268 117 381 180 33 19 80 44 105 57 25 13 91 57 147 98 55 41
129 95 163 119 70 50 298 256 380 344 30 33 102 107 159 166 57 58 117 126
133 151 17 25 47 62 66 83 20 20 34 37 31 37 -3 0 -14 -9 -25 -21z"/>
<path d="M2505 3285 c-77 -13 -153 -28 -168 -34 -16 -6 -89 -11 -168 -11 -193
0 -618 -18 -709 -31 -41 -5 -133 -14 -205 -19 -125 -9 -288 -40 -398 -76 -81
-26 -222 -99 -286 -148 -59 -45 -121 -110 -121 -125 0 -5 -18 -30 -39 -56 -22
-26 -44 -67 -50 -91 -6 -23 -21 -59 -33 -80 -19 -32 -22 -55 -26 -188 l-5
-152 104 -37 c57 -21 107 -37 111 -37 3 0 -3 19 -14 43 -43 86 -35 302 13 386
32 56 130 160 184 195 50 34 234 121 240 114 2 -2 -15 -41 -39 -88 -41 -84
-59 -116 -185 -333 -46 -80 -60 -112 -52 -120 6 -6 573 -407 1259 -892 l1247
-880 3 -87 c2 -70 6 -87 20 -93 33 -14 186 -65 193 -65 4 0 -2 18 -12 41 -37
75 -21 75 89 -3 112 -79 106 -68 86 -165 l-4 -22 62 18 c35 10 68 16 75 14 6
-2 445 64 975 147 529 83 1091 171 1248 195 389 61 420 66 420 70 0 37 -92
731 -97 736 -4 4 -444 269 -978 590 -761 457 -1063 645 -1402 871 -238 158
-433 291 -433 294 0 3 5 2 11 -2 7 -4 10 -1 7 7 -3 8 -21 17 -41 20 -20 3 -43
12 -52 19 -9 8 -24 15 -33 16 -10 1 -55 11 -102 23 -47 11 -133 25 -192 31
-58 6 -130 15 -159 20 -79 15 -190 10 -344 -15z"/>
<path d="M290 2238 c3 -3 567 -380 1254 -838 l1249 -832 164 13 c90 7 160 15
156 20 -4 4 -624 365 -1378 802 -753 437 -1388 805 -1410 817 -22 13 -38 21
-35 18z"/>
<path d="M45 1833 c8 -8 2660 -1794 2711 -1826 7 -4 25 19 48 61 19 37 51 95
70 129 l35 61 -1412 778 c-777 427 -1423 784 -1437 792 -14 9 -20 11 -15 5z"/>
</g>
</svg>
