<?xml version="1.0" standalone="no"?>
<!DOCTYPE svg PUBLIC "-//W3C//DTD SVG 20010904//EN"
 "http://www.w3.org/TR/2001/REC-SVG-20010904/DTD/svg10.dtd">
<svg version="1.0" xmlns="http://www.w3.org/2000/svg"
 width="1280.000000pt" height="1280.000000pt" viewBox="0 0 1280.000000 1280.000000"
 preserveAspectRatio="xMidYMid meet">
<metadata>
Created by potrace 1.15, written by Peter Selinger 2001-2017
</metadata>
<g transform="translate(0.000000,1280.000000) scale(0.100000,-0.100000)"
fill="#ffffff" stroke="none">
<path d="M8075 11363 c-11 -2 -60 -17 -110 -33 -49 -16 -189 -53 -310 -84
-121 -30 -301 -78 -400 -106 -99 -29 -261 -72 -360 -96 -262 -65 -532 -137
-760 -203 -110 -32 -243 -68 -295 -81 -52 -12 -189 -49 -305 -82 -115 -32
-289 -79 -385 -103 -176 -43 -361 -93 -785 -209 -349 -96 -568 -153 -697 -180
-64 -14 -176 -45 -250 -69 -73 -25 -252 -75 -398 -111 -146 -37 -331 -87 -411
-111 -80 -24 -220 -60 -310 -80 -196 -43 -228 -55 -289 -115 -66 -64 -94 -138
-94 -253 -1 -82 1 -90 23 -108 23 -19 101 -19 4225 -19 2310 0 4211 3 4224 6
57 16 67 123 27 280 -28 105 -184 691 -291 1089 -36 132 -74 268 -85 301 -23
70 -75 136 -129 164 -89 45 -282 51 -410 12 -143 -44 -432 -123 -540 -148 -63
-14 -155 -37 -203 -50 -148 -41 -151 -39 -197 121 -35 124 -55 160 -111 209
-55 47 -132 66 -255 65 -54 -1 -108 -3 -119 -6z m103 -207 c38 -19 65 -52 59
-70 -3 -8 -28 -19 -56 -25 -28 -6 -284 -73 -568 -150 -480 -129 -1412 -379
-1703 -457 -150 -40 -766 -205 -1435 -384 -269 -72 -589 -158 -710 -190 -121
-32 -373 -100 -560 -150 -187 -51 -389 -105 -450 -121 -106 -28 -431 -67 -462
-55 -21 8 -15 34 11 51 32 21 216 78 396 122 152 37 415 108 616 166 65 19
178 47 249 61 72 14 171 39 220 56 50 17 151 46 225 66 74 19 187 50 250 69
63 19 180 50 260 70 188 47 545 142 785 210 105 29 282 77 395 105 113 29 248
66 300 82 52 16 176 49 275 72 249 60 471 119 661 176 88 27 269 76 401 109
133 33 341 89 464 125 123 35 233 66 244 69 41 10 107 7 133 -7z m1518 -176
c34 -22 52 -56 37 -70 -7 -7 -179 -55 -358 -100 -38 -10 -155 -41 -260 -69
-104 -29 -199 -49 -211 -47 -20 5 -44 43 -44 70 0 35 88 66 500 176 241 64
287 70 336 40z"/>
<path d="M1485 9074 c-75 -18 -157 -93 -191 -172 -13 -28 -15 -544 -15 -3703
0 -3577 1 -3671 19 -3712 11 -23 29 -51 42 -62 22 -20 38 -20 4804 -23 2629
-2 4805 0 4833 3 64 8 102 41 129 112 18 46 19 115 24 1438 l5 1390 65 10 c36
6 83 20 105 30 53 26 112 87 139 144 l21 46 0 930 0 930 -23 47 c-50 99 -158
168 -264 168 -31 0 -39 4 -43 23 -3 12 -6 510 -8 1107 -2 1012 -3 1088 -20
1131 -25 65 -70 114 -130 144 l-53 26 -4699 2 c-3283 1 -4711 -1 -4740 -9z
m9174 -174 c64 -12 117 -36 125 -57 4 -9 5 -18 3 -20 -2 -2 -2016 -3 -4475 -3
-3276 0 -4485 -3 -4524 -11 -69 -15 -104 -33 -151 -78 -47 -44 -71 -89 -86
-159 -8 -39 -11 -983 -11 -3482 0 -2280 -3 -3430 -10 -3430 -19 0 -49 39 -62
82 -11 35 -13 685 -13 3478 l0 3435 23 67 c24 70 74 128 130 149 98 38 -14 37
4573 38 2877 1 4445 -2 4478 -9z m-122 -2343 c54 -29 103 -77 131 -131 l27
-51 0 -860 0 -860 -25 -49 c-46 -89 -135 -145 -246 -153 -111 -9 -124 10 -78
111 l26 57 0 887 c0 978 3 924 -62 998 -30 35 -36 54 -22 68 14 15 215 1 249
-17z m-4156 3 c28 -16 23 -34 -17 -65 -21 -16 -47 -50 -61 -82 l-25 -54 0
-874 c0 -943 -1 -913 55 -992 17 -24 26 -46 22 -53 -12 -19 -191 -8 -234 14
-55 29 -123 98 -147 151 l-24 50 0 860 0 860 24 51 c28 60 84 109 146 129 53
16 233 20 261 5z m3367 -16 c37 -25 46 -52 27 -80 l-15 -24 -1419 0 c-1337 0
-1420 1 -1439 18 -32 27 -36 58 -13 81 21 21 23 21 1429 21 1256 0 1410 -2
1430 -16z m362 -249 c19 -10 34 -31 47 -62 17 -45 18 -92 18 -745 0 -651 -1
-698 -17 -715 -16 -16 -19 -16 -34 -2 -13 14 -15 95 -18 675 -1 481 -5 669
-14 695 -7 20 -26 56 -42 80 -16 24 -30 52 -30 61 0 29 45 36 90 13z m-3457
-27 c9 -13 3 -24 -30 -57 -74 -71 -73 -55 -73 -819 l0 -673 -22 3 c-15 2 -30
17 -43 43 -19 39 -20 63 -23 700 -3 694 0 749 41 801 17 22 25 25 80 22 43 -2
63 -8 70 -20z m3126 -1672 c27 -24 28 -72 2 -86 -13 -7 -477 -10 -1431 -10
l-1411 0 -24 25 c-31 30 -32 59 -3 80 20 14 166 15 1434 13 1372 -3 1412 -4
1433 -22z"/>
</g>
</svg>
