<?xml version="1.0" standalone="no"?>
<!DOCTYPE svg PUBLIC "-//W3C//DTD SVG 20010904//EN"
 "http://www.w3.org/TR/2001/REC-SVG-20010904/DTD/svg10.dtd">
<svg version="1.0" xmlns="http://www.w3.org/2000/svg"
 width="1280.000000pt" height="1085.000000pt" viewBox="0 0 1280.000000 1085.000000"
 preserveAspectRatio="xMidYMid meet">
<metadata>
Created by potrace 1.15, written by Peter Selinger 2001-2017
</metadata>
<g transform="translate(0.000000,1085.000000) scale(0.100000,-0.100000)"
fill="#ffffff" stroke="none">
<path d="M11995 10843 c-54 -12 -131 -41 -237 -89 -64 -30 -192 -78 -285 -109
-127 -42 -236 -89 -443 -190 -294 -143 -521 -237 -610 -253 -78 -15 -156 -46
-375 -149 -182 -87 -326 -147 -500 -208 -77 -28 -243 -109 -575 -282 -85 -45
-200 -96 -255 -114 -343 -111 -580 -261 -648 -409 -16 -36 -36 -73 -44 -82
-33 -37 -336 -176 -463 -213 -271 -78 -310 -94 -368 -155 l-52 -55 -108 2
c-152 2 -423 39 -579 78 -157 40 -269 91 -329 150 -50 50 -62 93 -45 160 38
152 -32 343 -149 403 -45 23 -63 24 -158 6 -22 -4 -59 3 -120 22 -72 24 -105
29 -187 29 -94 0 -105 -2 -190 -39 -83 -36 -215 -82 -451 -157 -84 -27 -101
-29 -256 -29 -105 0 -195 -5 -244 -15 -79 -15 -275 -80 -464 -153 -199 -77
-375 -107 -690 -119 -163 -6 -166 -5 -275 26 -118 33 -208 40 -280 20 -22 -6
-103 -39 -180 -74 -77 -34 -180 -77 -230 -95 -266 -96 -350 -192 -405 -464
-14 -69 -53 -117 -145 -179 -70 -48 -205 -180 -205 -200 0 -21 32 -27 150 -27
156 0 260 -15 319 -44 28 -15 60 -26 72 -26 12 0 42 22 72 53 61 63 120 99
199 122 63 18 98 13 98 -13 -1 -81 -173 -293 -283 -348 -41 -21 -61 -25 -104
-22 -49 4 -57 9 -122 71 -83 81 -92 82 -248 33 -59 -19 -167 -45 -238 -60
-198 -39 -319 -96 -520 -245 -177 -131 -411 -385 -465 -503 -47 -104 -2 -274
104 -387 55 -59 204 -182 233 -191 15 -5 90 -21 165 -35 162 -30 240 -56 269
-93 19 -24 21 -35 16 -104 l-6 -77 56 -16 c62 -18 148 -59 158 -74 3 -6 43
-33 89 -61 56 -33 91 -62 105 -85 12 -21 28 -35 40 -35 31 0 85 53 119 118 51
96 122 287 122 330 0 69 -14 75 -225 84 -307 13 -505 55 -397 85 31 9 352 10
672 3 207 -5 217 -4 256 17 22 12 52 23 65 25 31 4 186 -59 193 -79 9 -22 0
-31 -63 -63 -32 -16 -62 -37 -65 -47 -4 -10 -14 -71 -22 -137 -26 -214 -62
-311 -114 -311 -52 0 -61 67 -34 278 16 123 16 129 -2 148 -41 46 -99 60 -148
38 -35 -16 -38 -33 -20 -90 12 -35 15 -72 12 -127 -4 -67 -11 -93 -52 -180
l-47 -101 35 -79 c44 -97 62 -174 77 -325 14 -150 7 -541 -12 -617 -26 -106
-159 -203 -344 -250 -90 -23 -208 -26 -331 -8 -79 11 -83 11 -143 -15 -34 -15
-72 -27 -83 -27 -31 0 -87 -65 -142 -166 -70 -128 -82 -141 -223 -250 -154
-119 -347 -309 -426 -420 -119 -169 -198 -351 -239 -556 -34 -168 -32 -465 5
-752 45 -348 52 -372 176 -611 130 -249 163 -298 307 -445 72 -74 148 -162
169 -195 48 -77 256 -283 363 -358 160 -114 289 -178 402 -199 30 -5 96 -26
145 -45 51 -20 121 -39 161 -44 82 -9 165 -30 244 -60 98 -37 473 -146 560
-163 47 -8 328 -44 625 -78 528 -61 546 -62 795 -62 282 1 462 17 895 80 297
43 304 45 610 154 137 49 331 116 430 150 448 153 746 298 1108 538 91 60 266
228 334 320 30 40 102 133 159 205 58 73 127 168 154 212 72 120 238 456 281
570 72 193 142 456 179 674 11 69 29 153 39 187 27 84 45 253 38 344 -7 87
-100 429 -153 564 -74 185 -179 374 -277 497 -50 64 -121 154 -157 199 -190
244 -495 497 -760 630 -129 65 -220 93 -396 125 -164 30 -274 62 -340 101 -24
14 -71 29 -104 34 -34 5 -73 16 -86 25 -50 33 -51 97 -1 130 13 8 121 40 238
69 329 83 721 217 902 307 63 32 80 43 322 214 351 247 514 325 685 325 115 0
132 -21 255 -315 83 -197 97 -225 137 -271 50 -57 117 -84 211 -84 100 0 189
20 354 81 198 73 220 69 367 -57 l88 -77 96 7 c184 13 295 46 397 116 79 54
156 87 542 231 562 210 583 217 783 265 102 25 241 63 310 85 69 22 179 49
245 60 243 40 288 50 391 89 57 22 112 40 120 40 9 0 66 25 127 55 60 30 121
55 136 55 14 0 55 8 91 19 l65 18 -1 174 c-1 233 -25 420 -79 614 -130 471
-146 642 -89 950 24 133 15 401 -19 545 -33 139 -75 250 -138 368 -29 53 -72
134 -96 179 -70 132 -82 198 -93 498 -11 315 -28 406 -87 484 -40 52 -115 73
-198 54z m-6619 -1726 c3 -8 -7 -45 -21 -84 -14 -39 -25 -81 -25 -93 0 -13 18
-52 41 -87 45 -73 59 -124 38 -149 -20 -24 -78 -11 -209 50 -153 71 -200 86
-269 86 -77 0 -125 -34 -179 -127 -46 -79 -73 -106 -99 -101 -30 6 -28 61 5
133 63 133 169 209 292 209 57 0 78 -5 141 -37 101 -50 137 -49 164 4 8 15 15
36 15 47 0 35 31 123 51 143 22 22 47 25 55 6z m-1132 -128 c29 -14 47 -55 36
-84 -14 -35 -72 -81 -170 -135 -52 -29 -110 -64 -129 -79 -44 -33 -71 -93 -71
-159 0 -74 -21 -119 -64 -137 -50 -21 -80 -19 -250 17 -242 51 -407 43 -541
-24 -136 -69 -204 -182 -220 -370 -4 -44 -13 -76 -26 -92 -25 -32 -101 -50
-216 -50 -74 0 -96 3 -110 16 -14 15 -15 21 -3 42 29 56 155 116 240 116 27 0
52 4 55 10 3 5 -2 24 -11 41 -21 42 -15 145 14 219 29 72 89 151 132 172 66
32 447 68 733 68 84 0 157 4 164 8 6 4 15 36 18 72 8 77 18 94 99 176 34 34
76 80 94 102 53 65 164 99 226 71z m3979 -252 c145 -185 296 -482 387 -762 50
-153 226 -527 327 -692 62 -102 80 -147 125 -303 40 -138 55 -230 45 -272 -4
-13 -36 -56 -72 -97 -71 -78 -85 -104 -85 -154 0 -62 58 -107 155 -122 65 -9
104 -30 105 -56 0 -17 -62 -65 -125 -97 -100 -50 -328 -123 -406 -129 -62 -5
-67 -4 -100 25 -77 68 -289 477 -458 887 -35 83 -102 227 -151 320 -161 310
-476 986 -546 1173 -49 129 -22 184 109 223 40 12 117 38 172 59 133 50 256
75 392 78 l62 2 64 -83z m-2267 9 c6 -14 -56 -232 -86 -301 -10 -24 -31 -101
-45 -171 -42 -202 -169 -587 -250 -756 -42 -88 -123 -151 -165 -128 -29 15
-40 43 -40 97 0 79 33 174 143 418 57 127 121 275 141 330 64 175 78 208 124
295 52 98 94 163 130 203 29 30 40 34 48 13z m-1283 -409 c9 -17 55 -124 101
-237 46 -113 105 -255 130 -316 26 -61 56 -155 68 -208 l22 -96 -21 -27 c-50
-67 -120 -10 -197 163 -26 60 -64 144 -83 186 -60 136 -86 255 -87 403 -1 170
22 217 67 132z m-409 -120 c3 -40 8 -362 11 -717 5 -550 8 -647 21 -660 10
-10 35 -15 82 -15 74 0 70 -4 118 114 25 60 97 131 134 131 16 0 32 -5 35 -10
4 -6 -3 -40 -15 -76 -34 -103 -17 -150 67 -180 163 -58 443 68 528 237 52 102
125 191 189 230 45 28 65 24 73 -11 3 -17 10 -33 15 -36 31 -19 121 53 133
106 7 34 40 67 50 50 30 -49 -97 -353 -180 -429 -91 -84 -497 -258 -807 -346
l-97 -27 -43 31 c-143 103 -700 120 -909 28 -30 -14 -70 -28 -89 -31 -42 -9
-197 -68 -258 -98 -114 -57 -261 -290 -262 -414 0 -46 5 -59 43 -110 24 -33
78 -91 119 -131 72 -67 80 -72 150 -87 179 -39 618 -81 758 -73 107 6 297 55
420 107 41 18 95 39 120 48 53 18 84 44 111 92 39 69 113 99 245 100 149 0
434 -68 581 -140 91 -45 115 -72 89 -99 -23 -22 -202 -22 -311 1 -140 29 -175
32 -175 15 0 -8 24 -31 54 -51 64 -43 346 -191 542 -286 156 -75 399 -233 514
-333 85 -75 181 -184 204 -232 29 -60 -2 -82 -67 -49 -18 9 -154 97 -303 195
-248 163 -588 365 -774 461 -55 28 -108 70 -204 159 -188 175 -219 186 -366
119 -49 -21 -130 -51 -181 -65 -103 -29 -130 -42 -198 -91 -62 -44 -140 -64
-281 -71 -63 -3 -130 -12 -147 -19 -28 -11 -33 -18 -33 -47 0 -100 186 -264
495 -437 150 -83 225 -136 225 -156 0 -22 -50 -17 -155 17 -318 101 -475 233
-666 559 -66 111 -75 115 -289 116 -192 1 -210 4 -332 65 -43 22 -85 39 -93
39 -23 0 -110 85 -161 156 -57 80 -74 130 -74 218 0 226 126 408 370 535 101
52 223 94 410 140 194 48 262 74 311 118 59 53 69 99 80 373 8 220 14 296 38
510 6 47 15 148 21 225 12 160 32 256 61 305 20 32 22 33 34 16 8 -10 16 -50
19 -89z m-1146 -687 c14 -25 65 -113 113 -196 100 -171 148 -282 156 -359 5
-48 3 -56 -20 -79 -14 -14 -35 -26 -46 -26 -35 0 -90 59 -125 134 -93 196
-185 564 -149 599 10 11 42 -23 71 -73z m-1068 -431 c59 -32 168 -85 308 -150
97 -45 416 -245 448 -281 31 -34 36 -66 13 -78 -39 -21 -231 66 -489 222 -226
137 -400 277 -387 312 8 21 30 16 107 -25z m3808 -385 c29 -30 66 -81 80 -112
26 -54 27 -65 27 -212 0 -138 -3 -161 -23 -212 -29 -73 -70 -108 -123 -108
-49 0 -79 15 -79 38 0 10 15 43 33 73 53 89 62 118 61 204 -1 69 -6 95 -42
188 -75 193 -46 256 66 141z m334 -117 c51 -167 48 -435 -6 -549 -35 -73 -196
-105 -196 -39 0 9 18 42 41 72 22 30 45 62 50 71 25 46 41 147 48 309 4 96 11
181 15 188 14 22 31 5 48 -52z m-4399 -12 c30 -12 18 -34 -25 -46 -58 -17
-217 -17 -245 -1 -33 18 -28 40 10 51 34 11 230 8 260 -4z m7372 -70 c30 -29
31 -35 4 -69 -24 -31 -43 -33 -86 -6 -25 15 -33 27 -33 49 0 54 72 70 115 26z
m-4435 -100 c16 -47 18 -240 4 -255 -33 -33 -80 29 -91 119 -7 63 2 112 28
145 28 35 45 33 59 -9z m211 -16 c19 -36 23 -171 6 -194 -15 -19 -16 -19 -35
-2 -24 22 -42 81 -42 140 0 36 5 49 22 61 29 21 35 20 49 -5z m-1183 -3 c52
-27 112 -174 112 -272 0 -71 -66 -130 -99 -90 -19 22 -30 72 -51 216 -13 95
-16 138 -8 147 13 16 13 16 46 -1z m-1011 -562 c18 -18 24 -32 20 -52 -3 -15
-23 -143 -46 -285 -57 -361 -86 -493 -146 -667 -45 -131 -141 -456 -210 -710
-37 -135 -89 -313 -117 -397 -43 -132 -54 -157 -85 -184 -33 -28 -37 -29 -52
-14 -21 21 -19 116 4 222 9 43 59 218 110 388 51 171 112 389 135 485 23 96
69 279 103 405 90 344 125 535 99 535 -32 0 -419 -383 -441 -438 -25 -60 -36
-32 -35 90 1 199 33 239 308 388 155 84 203 120 240 184 25 42 60 76 79 76 4
0 19 -12 34 -26z m1934 -245 c173 -112 299 -231 473 -449 230 -287 367 -487
480 -697 36 -68 78 -142 94 -165 51 -74 222 -386 224 -408 4 -28 -22 -45 -54
-37 -13 4 -62 37 -107 75 -67 56 -92 85 -135 158 -29 49 -77 125 -108 169 -30
44 -78 120 -108 168 -116 195 -539 755 -734 972 -141 157 -178 214 -157 239
22 26 64 18 132 -25z m-1281 -295 c28 -27 61 -71 76 -103 15 -31 55 -104 90
-164 35 -59 64 -109 64 -112 0 -2 12 -29 26 -59 20 -42 38 -62 80 -90 58 -39
64 -50 37 -64 -31 -16 -81 6 -107 46 -13 20 -48 60 -78 88 -56 53 -224 322
-253 404 -22 62 -19 100 7 100 5 0 31 -21 58 -46z m-390 -216 c36 -60 66 -238
91 -533 16 -197 18 -770 3 -785 -8 -8 -13 -2 -18 22 -15 76 -56 363 -71 498
-39 366 -59 830 -35 830 6 0 19 -14 30 -32z m965 -1474 c66 -31 107 -106 150
-274 15 -58 31 -109 35 -113 10 -11 97 32 160 78 89 66 169 75 223 28 29 -26
67 -112 67 -152 0 -51 -52 -92 -209 -168 -75 -36 -137 -67 -139 -68 -7 -6 29
-182 48 -240 31 -92 79 -167 114 -176 15 -5 80 -13 144 -19 121 -12 208 -37
236 -69 25 -28 77 -159 83 -211 10 -90 -55 -209 -197 -362 l-81 -87 105 -179
c88 -150 107 -188 115 -241 7 -44 23 -85 51 -132 43 -72 46 -88 29 -122 -47
-91 -164 -134 -240 -90 -48 29 -74 78 -154 293 -42 113 -80 209 -84 213 -15
15 -123 -65 -215 -158 -103 -103 -128 -115 -256 -115 -117 0 -150 32 -150 144
0 92 33 124 234 230 59 31 128 70 151 86 55 38 115 108 115 133 0 22 -66 238
-112 363 l-29 82 -127 4 c-107 4 -138 9 -196 31 -44 17 -88 27 -123 27 -30 0
-66 6 -82 14 -59 31 -131 133 -131 186 0 41 39 131 90 204 55 80 190 216 260
262 54 36 52 43 -45 209 l-77 130 6 67 c5 75 20 110 64 151 28 27 90 56 120
57 8 0 29 -7 47 -16z"/>
<path d="M3933 2697 c-70 -73 -83 -102 -56 -122 36 -28 101 -48 137 -41 57 11
59 22 24 129 -18 53 -35 97 -39 97 -3 0 -33 -28 -66 -63z"/>
<path d="M4490 2243 c0 -12 50 -173 54 -173 8 0 66 97 66 109 0 19 -30 45 -69
58 -42 15 -51 16 -51 6z"/>
<path d="M1125 5827 c-72 -72 -105 -308 -71 -505 23 -132 21 -148 -28 -253
-52 -113 -66 -166 -66 -256 1 -151 83 -230 275 -264 132 -23 291 23 342 100
20 29 23 46 21 106 -1 39 2 77 6 83 10 17 62 15 80 -3 18 -19 36 -78 36 -122
0 -41 24 -67 51 -53 46 25 78 148 54 206 -18 44 -59 62 -173 75 -122 14 -223
43 -313 90 -88 46 -159 115 -159 154 0 32 22 33 156 3 67 -14 136 -22 214 -22
105 -1 120 1 165 24 58 29 95 89 95 152 0 61 -48 192 -87 237 -56 66 -138 68
-211 5 -57 -49 -88 -105 -115 -210 -24 -96 -36 -107 -70 -62 -31 41 -28 170 7
267 26 74 32 126 18 148 -13 21 -164 133 -179 133 -8 0 -30 -15 -48 -33z"/>
</g>
</svg>
