<?xml version="1.0" standalone="no"?>
<!DOCTYPE svg PUBLIC "-//W3C//DTD SVG 20010904//EN"
 "http://www.w3.org/TR/2001/REC-SVG-20010904/DTD/svg10.dtd">
<svg version="1.0" xmlns="http://www.w3.org/2000/svg"
 width="1280.000000pt" height="640.000000pt" viewBox="0 0 1280.000000 640.000000"
 preserveAspectRatio="xMidYMid meet">
<metadata>
Created by potrace 1.15, written by Peter Selinger 2001-2017
</metadata>
<g transform="translate(0.000000,640.000000) scale(0.100000,-0.100000)"
fill="#ffffff" stroke="none">
<path d="M1642 5849 c-115 -19 -197 -77 -239 -166 -16 -33 -18 -64 -15 -238
l2 -200 -77 -2 c-86 -1 -947 -59 -1031 -68 -29 -4 -50 -11 -47 -16 3 -5 13
-48 21 -96 18 -105 56 -256 83 -336 20 -58 14 -72 -8 -18 l-12 29 -107 -32
-106 -32 -49 -68 c-32 -45 -45 -71 -38 -76 8 -5 13 -472 16 -1701 5 -1596 18
-2615 33 -2631 4 -4 64 -4 135 0 l127 7 425 359 425 359 0 103 0 104 2188 0
c1203 0 3554 -3 5225 -7 l3037 -6 0 -62 c0 -119 -26 -89 433 -492 231 -202
426 -371 432 -375 7 -4 68 -2 136 5 l124 12 5 117 c4 98 8 119 23 130 18 13
18 54 8 1063 -6 578 -13 1417 -16 1865 -3 448 -8 920 -11 1048 l-6 232 -170 0
c-158 0 -170 1 -163 18 74 188 106 381 86 510 -10 62 -9 76 4 95 8 12 15 24
15 28 0 10 -570 0 -685 -11 -122 -13 -275 -42 -383 -73 l-80 -23 -6 48 c-4 27
-2 125 5 217 13 206 5 267 -46 318 -39 39 -13 38 -480 23 -1292 -41 -4038 -42
-4414 -1 l-68 7 -7 -81 c-3 -44 -6 -132 -7 -195 -2 -115 -2 -115 -10 -45 -19
147 -71 269 -127 294 -32 15 -155 18 -1387 31 -1601 18 -2612 29 -2880 34
-143 2 -284 0 -313 -5z m10729 -1316 c-11 -21 -20 -35 -21 -31 0 12 33 78 38
74 2 -2 -6 -21 -17 -43z m-101 -203 c-11 -22 -23 -40 -25 -40 -3 0 4 18 15 40
11 22 23 40 25 40 3 0 -4 -18 -15 -40z m-52 -88 c-34 -57 -63 -94 -37 -47 32
57 51 85 56 85 2 0 -6 -17 -19 -38z m-64 -104 c-22 -37 -169 -239 -200 -273
-19 -22 -7 -2 28 45 36 47 89 120 118 163 30 42 55 77 57 77 2 0 1 -6 -3 -12z
m-11469 -99 c38 -51 116 -142 174 -203 l105 -111 -93 90 c-83 80 -176 190
-240 283 -46 66 -12 29 54 -59z m11235 -222 c0 -2 -10 -12 -22 -23 l-23 -19
19 23 c18 21 26 27 26 19z m-80 -94 c-64 -71 -222 -233 -227 -233 -5 0 260
280 266 280 2 0 -16 -21 -39 -47z m410 -448 c6 4 10 -7 10 -24 0 -17 -3 -31
-6 -31 -6 0 -134 90 -134 95 0 1 27 -8 60 -22 33 -13 65 -21 70 -18z m-11770
-835 c0 -5 -7 -10 -15 -10 -8 0 -15 5 -15 10 0 6 7 10 15 10 8 0 15 -4 15 -10z
m11817 -46 c-3 -3 -12 -4 -19 -1 -8 3 -5 6 6 6 11 1 17 -2 13 -5z m70 -201
c-2 -37 -3 -9 -3 62 0 72 1 102 3 68 2 -34 2 -93 0 -130z"/>
</g>
</svg>
